<svg id="SvgjsSvg1770" width="733" height="726.0000000000001" xmlns="http://www.w3.org/2000/svg" version="1.1" xmlns:xlink="http://www.w3.org/1999/xlink" xmlns:svgjs="http://svgjs.com/svgjs"><defs id="SvgjsDefs1771"><pattern patternUnits="userSpaceOnUse" id="pattern_mark_0" width="300" height="300"><text x="150" y="100" fill="rgba(229,229,229,0.8)" font-size="18" transform="rotate(-45, 150, 150)" style="dominant-baseline: middle; text-anchor: middle;"></text></pattern><pattern patternUnits="userSpaceOnUse" id="pattern_mark_1" width="300" height="300"><text x="150" y="200" fill="rgba(229,229,229,0.8)" font-size="18" transform="rotate(-45, 150, 150)" style="dominant-baseline: middle; text-anchor: middle;"></text></pattern><marker id="SvgjsMarker1833" markerWidth="13" markerHeight="9" refX="9.5" refY="4.5" viewBox="0 0 13 9" orient="auto" markerUnits="userSpaceOnUse" stroke-dasharray="0,0"><path id="SvgjsPath1834" d="M0,0 L13,4.5 L0,9 L0,0" fill="#323232" stroke="#323232" stroke-width="1"></path></marker><marker id="SvgjsMarker1837" markerWidth="13" markerHeight="9" refX="9.5" refY="4.5" viewBox="0 0 13 9" orient="auto" markerUnits="userSpaceOnUse" stroke-dasharray="0,0"><path id="SvgjsPath1838" d="M0,0 L13,4.5 L0,9 L0,0" fill="#323232" stroke="#323232" stroke-width="1"></path></marker><marker id="SvgjsMarker1875" markerWidth="13" markerHeight="9" refX="9.5" refY="4.5" viewBox="0 0 13 9" orient="auto" markerUnits="userSpaceOnUse" stroke-dasharray="0,0"><path id="SvgjsPath1876" d="M0,0 L13,4.5 L0,9 L0,0" fill="#323232" stroke="#323232" stroke-width="1"></path></marker><marker id="SvgjsMarker1879" markerWidth="13" markerHeight="9" refX="9.5" refY="4.5" viewBox="0 0 13 9" orient="auto" markerUnits="userSpaceOnUse" stroke-dasharray="0,0"><path id="SvgjsPath1880" d="M0,0 L13,4.5 L0,9 L0,0" fill="#323232" stroke="#323232" stroke-width="1"></path></marker></defs><rect id="svgbackgroundid" width="733" height="726.0000000000001" fill="transparent"></rect><rect id="SvgjsRect1773" width="733" height="726.0000000000001" fill="url(#pattern_mark_0)"></rect><rect id="SvgjsRect1774" width="733" height="726.0000000000001" fill="url(#pattern_mark_1)"></rect><g id="SvgjsG1775" transform="translate(204,25)"><path id="SvgjsPath1776" d="M 40 0L 80 70L 0 70Z" stroke="rgba(33,41,48,1)" stroke-width="1.5" fill-opacity="1" fill="#ffffff"></path><g id="SvgjsG1777"><text id="SvgjsText1778" font-family="微软雅黑" text-anchor="middle" font-size="16px" width="60px" fill="#323232" font-weight="400" align="middle" lineHeight="125%" anchor="middle" family="微软雅黑" size="16px" weight="400" font-style="" opacity="1" y="29.75" transform="rotate(0)"><tspan id="SvgjsTspan1779" dy="20" x="40"><tspan id="SvgjsTspan1780" style="">M</tspan></tspan></text></g></g><g id="SvgjsG1781" transform="translate(196,147)"><path id="SvgjsPath1782" d="M 0 4Q 0 0 4 0L 92 0Q 96 0 96 4L 96 50Q 96 54 92 54L 4 54Q 0 54 0 50Z" stroke="rgba(33,41,48,1)" stroke-width="1.5" fill-opacity="1" fill="#ffffff"></path><g id="SvgjsG1783"><text id="SvgjsText1784" font-family="微软雅黑" text-anchor="middle" font-size="16px" width="76px" fill="#323232" font-weight="400" align="middle" lineHeight="125%" anchor="middle" family="微软雅黑" size="16px" weight="400" font-style="" opacity="1" y="13" transform="rotate(0)"><tspan id="SvgjsTspan1785" dy="20" x="48"><tspan id="SvgjsTspan1786" style="">P</tspan></tspan></text></g></g><g id="SvgjsG1787" transform="translate(190.5,253)"><path id="SvgjsPath1788" d="M 0 4Q 0 0 4 0L 103 0Q 107 0 107 4L 107 295Q 107 299 103 299L 4 299Q 0 299 0 295Z" stroke="rgba(33,41,48,1)" stroke-width="1.5" fill-opacity="1" fill="#ffffff"></path><g id="SvgjsG1789"><text id="SvgjsText1790" font-family="微软雅黑" text-anchor="middle" font-size="13px" width="87px" fill="#323232" font-weight="400" align="middle" lineHeight="125%" anchor="middle" family="微软雅黑" size="13px" weight="400" font-style="" opacity="1" y="138.875" transform="rotate(0)"></text></g></g><g id="SvgjsG1791" transform="translate(211.5,268)"><path id="SvgjsPath1792" d="M 0 35C 0 -11.666666666666666 70 -11.666666666666666 70 35C 70 81.66666666666667 0 81.66666666666667 0 35Z" stroke="rgba(33,41,48,1)" stroke-width="1.5" fill-opacity="1" fill="#ffffff"></path><g id="SvgjsG1793"><text id="SvgjsText1794" font-family="微软雅黑" text-anchor="middle" font-size="16px" width="50px" fill="#323232" font-weight="400" align="middle" lineHeight="125%" anchor="middle" family="微软雅黑" size="16px" weight="400" font-style="" opacity="1" y="21" transform="rotate(0)"><tspan id="SvgjsTspan1795" dy="20" x="35"><tspan id="SvgjsTspan1796" style="">G</tspan></tspan></text></g></g><g id="SvgjsG1797" transform="translate(211.5,358)"><path id="SvgjsPath1798" d="M 0 35C 0 -11.666666666666666 70 -11.666666666666666 70 35C 70 81.66666666666667 0 81.66666666666667 0 35Z" stroke="rgba(33,41,48,1)" stroke-width="1.5" fill-opacity="1" fill="#ffffff"></path><g id="SvgjsG1799"><text id="SvgjsText1800" font-family="微软雅黑" text-anchor="middle" font-size="16px" width="50px" fill="#323232" font-weight="400" align="middle" lineHeight="125%" anchor="middle" family="微软雅黑" size="16px" weight="400" font-style="" opacity="1" y="21" transform="rotate(0)"><tspan id="SvgjsTspan1801" dy="20" x="35"><tspan id="SvgjsTspan1802" style="">G</tspan></tspan></text></g></g><g id="SvgjsG1803" transform="matrix(6.123233995736766e-17,1,-1,6.123233995736766e-17,271.5,446)"><path id="SvgjsPath1804" d="M 0 0L 73 0L 73 40L 0 40Z" stroke="none" fill="none"></path><g id="SvgjsG1805"><text id="SvgjsText1806" font-family="微软雅黑" text-anchor="middle" font-size="23px" width="73px" fill="#323232" font-weight="400" align="middle" lineHeight="125%" anchor="middle" family="微软雅黑" size="23px" weight="400" font-style="" opacity="1" y="-0.375" transform="rotate(0)"><tspan id="SvgjsTspan1807" dy="28.75" x="36.5"><tspan id="SvgjsTspan1808" style="">...</tspan></tspan></text></g></g><g id="SvgjsG1809" transform="matrix(-1.8369701987210297e-16,-1,1,-1.8369701987210297e-16,150,701)"><path id="SvgjsPath1810" d="M 0 4Q 0 0 4 0L 103 0Q 107 0 107 4L 107 472Q 107 476 103 476L 4 476Q 0 476 0 472Z" stroke="rgba(33,41,48,1)" stroke-width="1.5" fill-opacity="1" fill="#ffffff"></path><g id="SvgjsG1811"><text id="SvgjsText1812" font-family="微软雅黑" text-anchor="middle" font-size="13px" width="87px" fill="#323232" font-weight="400" align="middle" lineHeight="125%" anchor="middle" family="微软雅黑" size="13px" weight="400" font-style="" opacity="1" y="227.375" transform="rotate(0)"></text></g></g><g id="SvgjsG1813" transform="translate(165,610)"><path id="SvgjsPath1814" d="M 0 35C 0 -11.666666666666666 70 -11.666666666666666 70 35C 70 81.66666666666667 0 81.66666666666667 0 35Z" stroke="rgba(33,41,48,1)" stroke-width="1.5" fill-opacity="1" fill="#ffffff"></path><g id="SvgjsG1815"><text id="SvgjsText1816" font-family="微软雅黑" text-anchor="middle" font-size="16px" width="50px" fill="#323232" font-weight="400" align="middle" lineHeight="125%" anchor="middle" family="微软雅黑" size="16px" weight="400" font-style="" opacity="1" y="21" transform="rotate(0)"><tspan id="SvgjsTspan1817" dy="20" x="35"><tspan id="SvgjsTspan1818" style="">G</tspan></tspan></text></g></g><g id="SvgjsG1819" transform="translate(255,610)"><path id="SvgjsPath1820" d="M 0 35C 0 -11.666666666666666 70 -11.666666666666666 70 35C 70 81.66666666666667 0 81.66666666666667 0 35Z" stroke="rgba(33,41,48,1)" stroke-width="1.5" fill-opacity="1" fill="#ffffff"></path><g id="SvgjsG1821"><text id="SvgjsText1822" font-family="微软雅黑" text-anchor="middle" font-size="16px" width="50px" fill="#323232" font-weight="400" align="middle" lineHeight="125%" anchor="middle" family="微软雅黑" size="16px" weight="400" font-style="" opacity="1" y="21" transform="rotate(0)"><tspan id="SvgjsTspan1823" dy="20" x="35"><tspan id="SvgjsTspan1824" style="">G</tspan></tspan></text></g></g><g id="SvgjsG1825" transform="translate(343,620)"><path id="SvgjsPath1826" d="M 0 0L 73 0L 73 40L 0 40Z" stroke="none" fill="none"></path><g id="SvgjsG1827"><text id="SvgjsText1828" font-family="微软雅黑" text-anchor="middle" font-size="23px" width="73px" fill="#323232" font-weight="400" align="middle" lineHeight="125%" anchor="middle" family="微软雅黑" size="23px" weight="400" font-style="" opacity="1" y="-0.375" transform="rotate(0)"><tspan id="SvgjsTspan1829" dy="28.75" x="36.5"><tspan id="SvgjsTspan1830" style="">...</tspan></tspan></text></g></g><g id="SvgjsG1831"><path id="SvgjsPath1832" d="M244 146.25L244 97.69999999999999" stroke="#323232" stroke-width="1.5" fill="none" marker-end="url(#SvgjsMarker1833)"></path></g><g id="SvgjsG1835"><path id="SvgjsPath1836" d="M244 252.25L244 203.7" stroke="#323232" stroke-width="1.5" fill="none" marker-end="url(#SvgjsMarker1837)"></path></g><g id="SvgjsG1839" transform="translate(421,25)"><path id="SvgjsPath1840" d="M 40 0L 80 70L 0 70Z" stroke="rgba(33,41,48,1)" stroke-width="1.5" fill-opacity="1" fill="#ffffff"></path><g id="SvgjsG1841"><text id="SvgjsText1842" font-family="微软雅黑" text-anchor="middle" font-size="16px" width="60px" fill="#323232" font-weight="400" align="middle" lineHeight="125%" anchor="middle" family="微软雅黑" size="16px" weight="400" font-style="" opacity="1" y="29.75" transform="rotate(0)"><tspan id="SvgjsTspan1843" dy="20" x="40"><tspan id="SvgjsTspan1844" style="">M</tspan></tspan></text></g></g><g id="SvgjsG1845" transform="translate(413,147)"><path id="SvgjsPath1846" d="M 0 4Q 0 0 4 0L 92 0Q 96 0 96 4L 96 50Q 96 54 92 54L 4 54Q 0 54 0 50Z" stroke="rgba(33,41,48,1)" stroke-width="1.5" fill-opacity="1" fill="#ffffff"></path><g id="SvgjsG1847"><text id="SvgjsText1848" font-family="微软雅黑" text-anchor="middle" font-size="16px" width="76px" fill="#323232" font-weight="400" align="middle" lineHeight="125%" anchor="middle" family="微软雅黑" size="16px" weight="400" font-style="" opacity="1" y="13" transform="rotate(0)"><tspan id="SvgjsTspan1849" dy="20" x="48"><tspan id="SvgjsTspan1850" style="">P</tspan></tspan></text></g></g><g id="SvgjsG1851" transform="translate(407.5,253)"><path id="SvgjsPath1852" d="M 0 4Q 0 0 4 0L 103 0Q 107 0 107 4L 107 295Q 107 299 103 299L 4 299Q 0 299 0 295Z" stroke="rgba(33,41,48,1)" stroke-width="1.5" fill-opacity="1" fill="#ffffff"></path><g id="SvgjsG1853"><text id="SvgjsText1854" font-family="微软雅黑" text-anchor="middle" font-size="13px" width="87px" fill="#323232" font-weight="400" align="middle" lineHeight="125%" anchor="middle" family="微软雅黑" size="13px" weight="400" font-style="" opacity="1" y="138.875" transform="rotate(0)"></text></g></g><g id="SvgjsG1855" transform="translate(428.5,268)"><path id="SvgjsPath1856" d="M 0 35C 0 -11.666666666666666 70 -11.666666666666666 70 35C 70 81.66666666666667 0 81.66666666666667 0 35Z" stroke="rgba(33,41,48,1)" stroke-width="1.5" fill-opacity="1" fill="#ffffff"></path><g id="SvgjsG1857"><text id="SvgjsText1858" font-family="微软雅黑" text-anchor="middle" font-size="16px" width="50px" fill="#323232" font-weight="400" align="middle" lineHeight="125%" anchor="middle" family="微软雅黑" size="16px" weight="400" font-style="" opacity="1" y="21" transform="rotate(0)"><tspan id="SvgjsTspan1859" dy="20" x="35"><tspan id="SvgjsTspan1860" style="">G</tspan></tspan></text></g></g><g id="SvgjsG1861" transform="translate(428.5,358)"><path id="SvgjsPath1862" d="M 0 35C 0 -11.666666666666666 70 -11.666666666666666 70 35C 70 81.66666666666667 0 81.66666666666667 0 35Z" stroke="rgba(33,41,48,1)" stroke-width="1.5" fill-opacity="1" fill="#ffffff"></path><g id="SvgjsG1863"><text id="SvgjsText1864" font-family="微软雅黑" text-anchor="middle" font-size="16px" width="50px" fill="#323232" font-weight="400" align="middle" lineHeight="125%" anchor="middle" family="微软雅黑" size="16px" weight="400" font-style="" opacity="1" y="21" transform="rotate(0)"><tspan id="SvgjsTspan1865" dy="20" x="35"><tspan id="SvgjsTspan1866" style="">G</tspan></tspan></text></g></g><g id="SvgjsG1867" transform="matrix(6.123233995736766e-17,1,-1,6.123233995736766e-17,488.5,446)"><path id="SvgjsPath1868" d="M 0 0L 73 0L 73 40L 0 40Z" stroke="none" fill="none"></path><g id="SvgjsG1869"><text id="SvgjsText1870" font-family="微软雅黑" text-anchor="middle" font-size="23px" width="73px" fill="#323232" font-weight="400" align="middle" lineHeight="125%" anchor="middle" family="微软雅黑" size="23px" weight="400" font-style="" opacity="1" y="-0.375" transform="rotate(0)"><tspan id="SvgjsTspan1871" dy="28.75" x="36.5"><tspan id="SvgjsTspan1872" style="">...</tspan></tspan></text></g></g><g id="SvgjsG1873"><path id="SvgjsPath1874" d="M461 146.25L461 97.69999999999999" stroke="#323232" stroke-width="1.5" fill="none" marker-end="url(#SvgjsMarker1875)"></path></g><g id="SvgjsG1877"><path id="SvgjsPath1878" d="M461 252.25L461 203.7" stroke="#323232" stroke-width="1.5" fill="none" marker-end="url(#SvgjsMarker1879)"></path></g><g id="SvgjsG1881" transform="translate(25,635)"><path id="SvgjsPath1882" d="M 0 0L 100 0L 100 40L 0 40Z" stroke="none" fill="none"></path><g id="SvgjsG1883"><text id="SvgjsText1884" font-family="微软雅黑" text-anchor="middle" font-size="17px" width="100px" fill="#323232" font-weight="400" align="middle" lineHeight="125%" anchor="middle" family="微软雅黑" size="17px" weight="400" font-style="" opacity="1" y="5.375" transform="rotate(0)"><tspan id="SvgjsTspan1885" dy="21.25" x="50"><tspan id="SvgjsTspan1886" style="">全局runq</tspan></tspan></text></g></g><g id="SvgjsG1887" transform="translate(65,342)"><path id="SvgjsPath1888" d="M 0 0L 100 0L 100 40L 0 40Z" stroke="none" fill="none"></path><g id="SvgjsG1889"><text id="SvgjsText1890" font-family="微软雅黑" text-anchor="middle" font-size="17px" width="100px" fill="#323232" font-weight="400" align="middle" lineHeight="125%" anchor="middle" family="微软雅黑" size="17px" weight="400" font-style="" opacity="1" y="5.375" transform="rotate(0)"><tspan id="SvgjsTspan1891" dy="21.25" x="50"><tspan id="SvgjsTspan1892" style="">局部runq</tspan></tspan></text></g></g><g id="SvgjsG1893" transform="matrix(-1,1.2246467991473532e-16,-1.2246467991473532e-16,-1,659,549)"><path id="SvgjsPath1894" d="M 120 0Q 111 0 111 9L 111 129.5Q 111 138.5 98 138.5Q 111 138.5 111 147.5L 111 268Q 111 277 120 277" stroke="rgba(33,41,48,1)" stroke-width="1.5" fill="none"></path><path id="SvgjsPath1895" d="M 0 0L 120 0L 120 277L 0 277Z" stroke="none" fill="none"></path><g id="SvgjsG1896"><text id="SvgjsText1897" font-family="微软雅黑" text-anchor="end" font-size="13px" width="93px" fill="#323232" font-weight="400" align="middle" lineHeight="125%" anchor="end" family="微软雅黑" size="13px" weight="400" font-style="" opacity="1" y="127.875" transform="rotate(0)"></text></g></g><g id="SvgjsG1898" transform="translate(577,388)"><path id="SvgjsPath1899" d="M 0 0L 131 0L 131 40L 0 40Z" stroke="none" fill="none"></path><g id="SvgjsG1900"><text id="SvgjsText1901" font-family="微软雅黑" text-anchor="middle" font-size="17px" width="131px" fill="#323232" font-weight="400" align="middle" lineHeight="125%" anchor="middle" family="微软雅黑" size="17px" weight="400" font-style="" opacity="1" y="5.375" transform="rotate(0)"><tspan id="SvgjsTspan1902" dy="21.25" x="65.5"><tspan id="SvgjsTspan1903" style="">长度256数组</tspan></tspan></text></g></g></svg>