<svg id="SvgjsSvg1619" width="1004" height="614.5" xmlns="http://www.w3.org/2000/svg" version="1.1" xmlns:xlink="http://www.w3.org/1999/xlink" xmlns:svgjs="http://svgjs.com/svgjs"><defs id="SvgjsDefs1620"><pattern patternUnits="userSpaceOnUse" id="pattern_mark_0" width="300" height="300"><text x="150" y="100" fill="rgba(229,229,229,0.8)" font-size="18" transform="rotate(-45, 150, 150)" style="dominant-baseline: middle; text-anchor: middle;"></text></pattern><pattern patternUnits="userSpaceOnUse" id="pattern_mark_1" width="300" height="300"><text x="150" y="200" fill="rgba(229,229,229,0.8)" font-size="18" transform="rotate(-45, 150, 150)" style="dominant-baseline: middle; text-anchor: middle;"></text></pattern><marker id="SvgjsMarker1674" markerWidth="13" markerHeight="9" refX="9.5" refY="4.5" viewBox="0 0 13 9" orient="auto" markerUnits="userSpaceOnUse" stroke-dasharray="0,0"><path id="SvgjsPath1675" d="M0,0 L13,4.5 L0,9 L0,0" fill="#323232" stroke="#323232" stroke-width="1"></path></marker><marker id="SvgjsMarker1678" markerWidth="13" markerHeight="9" refX="9.5" refY="4.5" viewBox="0 0 13 9" orient="auto" markerUnits="userSpaceOnUse" stroke-dasharray="0,0"><path id="SvgjsPath1679" d="M0,0 L13,4.5 L0,9 L0,0" fill="#323232" stroke="#323232" stroke-width="1"></path></marker><marker id="SvgjsMarker1682" markerWidth="13" markerHeight="9" refX="9.5" refY="4.5" viewBox="0 0 13 9" orient="auto" markerUnits="userSpaceOnUse" stroke-dasharray="0,0"><path id="SvgjsPath1683" d="M0,0 L13,4.5 L0,9 L0,0" fill="#323232" stroke="#323232" stroke-width="1"></path></marker><marker id="SvgjsMarker1686" markerWidth="13" markerHeight="9" refX="9.5" refY="4.5" viewBox="0 0 13 9" orient="auto" markerUnits="userSpaceOnUse" stroke-dasharray="0,0"><path id="SvgjsPath1687" d="M0,0 L13,4.5 L0,9 L0,0" fill="#323232" stroke="#323232" stroke-width="1"></path></marker><marker id="SvgjsMarker1690" markerWidth="13" markerHeight="9" refX="3.5" refY="4.5" viewBox="0 0 13 9" orient="auto" markerUnits="userSpaceOnUse" stroke-dasharray="0,0"><path id="SvgjsPath1691" d="M13,0 L0,4.5 L13,9 L13,0" fill="#323232" stroke="#323232" stroke-width="1"></path></marker><marker id="SvgjsMarker1692" markerWidth="13" markerHeight="9" refX="9.5" refY="4.5" viewBox="0 0 13 9" orient="auto" markerUnits="userSpaceOnUse" stroke-dasharray="0,0"><path id="SvgjsPath1693" d="M0,0 L13,4.5 L0,9 L0,0" fill="#323232" stroke="#323232" stroke-width="1"></path></marker><marker id="SvgjsMarker1696" markerWidth="13" markerHeight="9" refX="3.5" refY="4.5" viewBox="0 0 13 9" orient="auto" markerUnits="userSpaceOnUse" stroke-dasharray="0,0"><path id="SvgjsPath1697" d="M13,0 L0,4.5 L13,9 L13,0" fill="#323232" stroke="#323232" stroke-width="1"></path></marker><marker id="SvgjsMarker1698" markerWidth="13" markerHeight="9" refX="9.5" refY="4.5" viewBox="0 0 13 9" orient="auto" markerUnits="userSpaceOnUse" stroke-dasharray="0,0"><path id="SvgjsPath1699" d="M0,0 L13,4.5 L0,9 L0,0" fill="#323232" stroke="#323232" stroke-width="1"></path></marker><marker id="SvgjsMarker1708" markerWidth="13" markerHeight="9" refX="9.5" refY="4.5" viewBox="0 0 13 9" orient="auto" markerUnits="userSpaceOnUse" stroke-dasharray="0,0"><path id="SvgjsPath1709" d="M0,0 L13,4.5 L0,9 L0,0" fill="#323232" stroke="#323232" stroke-width="1"></path></marker><marker id="SvgjsMarker1712" markerWidth="13" markerHeight="9" refX="3.5" refY="4.5" viewBox="0 0 13 9" orient="auto" markerUnits="userSpaceOnUse" stroke-dasharray="0,0"><path id="SvgjsPath1713" d="M13,0 L0,4.5 L13,9 L13,0" fill="#323232" stroke="#323232" stroke-width="1"></path></marker><marker id="SvgjsMarker1714" markerWidth="13" markerHeight="9" refX="9.5" refY="4.5" viewBox="0 0 13 9" orient="auto" markerUnits="userSpaceOnUse" stroke-dasharray="0,0"><path id="SvgjsPath1715" d="M0,0 L13,4.5 L0,9 L0,0" fill="#323232" stroke="#323232" stroke-width="1"></path></marker><marker id="SvgjsMarker1718" markerWidth="13" markerHeight="9" refX="3.5" refY="4.5" viewBox="0 0 13 9" orient="auto" markerUnits="userSpaceOnUse" stroke-dasharray="0,0"><path id="SvgjsPath1719" d="M13,0 L0,4.5 L13,9 L13,0" fill="#323232" stroke="#323232" stroke-width="1"></path></marker><marker id="SvgjsMarker1722" markerWidth="13" markerHeight="9" refX="3.5" refY="4.5" viewBox="0 0 13 9" orient="auto" markerUnits="userSpaceOnUse" stroke-dasharray="0,0"><path id="SvgjsPath1723" d="M13,0 L0,4.5 L13,9 L13,0" fill="#323232" stroke="#323232" stroke-width="1"></path></marker><marker id="SvgjsMarker1724" markerWidth="13" markerHeight="9" refX="9.5" refY="4.5" viewBox="0 0 13 9" orient="auto" markerUnits="userSpaceOnUse" stroke-dasharray="0,0"><path id="SvgjsPath1725" d="M0,0 L13,4.5 L0,9 L0,0" fill="#323232" stroke="#323232" stroke-width="1"></path></marker></defs><rect id="svgbackgroundid" width="1004" height="614.5" fill="transparent"></rect><rect id="SvgjsRect1622" width="1004" height="614.5" fill="url(#pattern_mark_0)"></rect><rect id="SvgjsRect1623" width="1004" height="614.5" fill="url(#pattern_mark_1)"></rect><g id="SvgjsG1624" transform="translate(139,231)"><path id="SvgjsPath1625" d="M 0 35C 0 -11.666666666666666 70 -11.666666666666666 70 35C 70 81.66666666666667 0 81.66666666666667 0 35Z" stroke="rgba(33,41,48,1)" stroke-width="1.5" fill-opacity="1" fill="#ffffff"></path><g id="SvgjsG1626"><text id="SvgjsText1627" font-family="微软雅黑" text-anchor="middle" font-size="16px" width="50px" fill="#323232" font-weight="400" align="middle" lineHeight="125%" anchor="middle" family="微软雅黑" size="16px" weight="400" font-style="" opacity="1" y="21" transform="rotate(0)"><tspan id="SvgjsTspan1628" dy="20" x="35"><tspan id="SvgjsTspan1629" style="">_Gidle</tspan></tspan></text></g></g><g id="SvgjsG1630" transform="translate(284,221)"><path id="SvgjsPath1631" d="M 0 40C 0 -13.333333333333334 80 -13.333333333333334 80 40C 80 93.33333333333333 0 93.33333333333333 0 40Z" stroke="rgba(33,41,48,1)" stroke-width="1.5" fill-opacity="1" fill="#ffffff"></path><g id="SvgjsG1632"><text id="SvgjsText1633" font-family="微软雅黑" text-anchor="middle" font-size="16px" width="60px" fill="#323232" font-weight="400" align="middle" lineHeight="125%" anchor="middle" family="微软雅黑" size="16px" weight="400" font-style="" opacity="1" y="26" transform="rotate(0)"><tspan id="SvgjsTspan1634" dy="20" x="40"><tspan id="SvgjsTspan1635" style="">_Gdead</tspan></tspan></text></g></g><g id="SvgjsG1636" transform="translate(430,208)"><path id="SvgjsPath1637" d="M 0 53C 0 -17.666666666666668 106 -17.666666666666668 106 53C 106 123.66666666666667 0 123.66666666666667 0 53Z" stroke="rgba(33,41,48,1)" stroke-width="1.5" fill-opacity="1" fill="#a6a6a6"></path><g id="SvgjsG1638"><text id="SvgjsText1639" font-family="微软雅黑" text-anchor="middle" font-size="16px" width="86px" fill="#323232" font-weight="400" align="middle" lineHeight="125%" anchor="middle" family="微软雅黑" size="16px" weight="400" font-style="" opacity="1" y="39" transform="rotate(0)"><tspan id="SvgjsTspan1640" dy="20" x="53"><tspan id="SvgjsTspan1641" style="">_Grunnable</tspan></tspan></text></g></g><g id="SvgjsG1642" transform="translate(602,208)"><path id="SvgjsPath1643" d="M 0 53C 0 -17.666666666666668 106 -17.666666666666668 106 53C 106 123.66666666666667 0 123.66666666666667 0 53Z" stroke="rgba(33,41,48,1)" stroke-width="1.5" fill-opacity="1" fill="#95da69"></path><g id="SvgjsG1644"><text id="SvgjsText1645" font-family="微软雅黑" text-anchor="middle" font-size="16px" width="86px" fill="#323232" font-weight="400" align="middle" lineHeight="125%" anchor="middle" family="微软雅黑" size="16px" weight="400" font-style="" opacity="1" y="39" transform="rotate(0)"><tspan id="SvgjsTspan1646" dy="20" x="53"><tspan id="SvgjsTspan1647" style="">_Grunning</tspan></tspan></text></g></g><g id="SvgjsG1648" transform="translate(801,221)"><path id="SvgjsPath1649" d="M 0 40C 0 -13.333333333333334 80 -13.333333333333334 80 40C 80 93.33333333333333 0 93.33333333333333 0 40Z" stroke="rgba(33,41,48,1)" stroke-width="1.5" fill-opacity="1" fill="#ffffff"></path><g id="SvgjsG1650"><text id="SvgjsText1651" font-family="微软雅黑" text-anchor="middle" font-size="16px" width="60px" fill="#323232" font-weight="400" align="middle" lineHeight="125%" anchor="middle" family="微软雅黑" size="16px" weight="400" font-style="" opacity="1" y="26" transform="rotate(0)"><tspan id="SvgjsTspan1652" dy="20" x="40"><tspan id="SvgjsTspan1653" style="">_Gdead</tspan></tspan></text></g></g><g id="SvgjsG1654" transform="translate(602,25)"><path id="SvgjsPath1655" d="M 0 53C 0 -17.666666666666668 106 -17.666666666666668 106 53C 106 123.66666666666667 0 123.66666666666667 0 53Z" stroke="rgba(33,41,48,1)" stroke-width="1.5" fill-opacity="1" fill="#ffffff"></path><g id="SvgjsG1656"><text id="SvgjsText1657" font-family="微软雅黑" text-anchor="middle" font-size="16px" width="86px" fill="#323232" font-weight="400" align="middle" lineHeight="125%" anchor="middle" family="微软雅黑" size="16px" weight="400" font-style="" opacity="1" y="39" transform="rotate(0)"><tspan id="SvgjsTspan1658" dy="20" x="53"><tspan id="SvgjsTspan1659" style="">_Gsyscall</tspan></tspan></text></g></g><g id="SvgjsG1660" transform="translate(430,420)"><path id="SvgjsPath1661" d="M 0 53C 0 -17.666666666666668 106 -17.666666666666668 106 53C 106 123.66666666666667 0 123.66666666666667 0 53Z" stroke="rgba(33,41,48,1)" stroke-width="1.5" fill-opacity="1" fill="#ffffff"></path><g id="SvgjsG1662"><text id="SvgjsText1663" font-family="微软雅黑" text-anchor="middle" font-size="16px" width="86px" fill="#323232" font-weight="400" align="middle" lineHeight="125%" anchor="middle" family="微软雅黑" size="16px" weight="400" font-style="" opacity="1" y="39" transform="rotate(0)"><tspan id="SvgjsTspan1664" dy="20" x="53"><tspan id="SvgjsTspan1665" style="">_Gwaiting</tspan></tspan></text></g></g><g id="SvgjsG1666" transform="translate(594,426)"><path id="SvgjsPath1667" d="M 0 61C 0 -20.333333333333332 122 -20.333333333333332 122 61C 122 142.33333333333334 0 142.33333333333334 0 61Z" stroke="rgba(33,41,48,1)" stroke-width="1.5" fill-opacity="1" fill="#ffffff"></path><g id="SvgjsG1668"><text id="SvgjsText1669" font-family="微软雅黑" text-anchor="middle" font-size="16px" width="102px" fill="#323232" font-weight="400" align="middle" lineHeight="125%" anchor="middle" family="微软雅黑" size="16px" weight="400" font-style="" opacity="1" y="47" transform="rotate(0)"><tspan id="SvgjsTspan1670" dy="20" x="61"><tspan id="SvgjsTspan1671" style="">_Gpreempted</tspan></tspan></text></g></g><g id="SvgjsG1672"><path id="SvgjsPath1673" d="M209.75 266L282.20813591723834 266" stroke="#323232" stroke-width="1.5" fill="none" marker-end="url(#SvgjsMarker1674)"></path></g><g id="SvgjsG1676"><path id="SvgjsPath1677" d="M364.75 261L427.3 261" stroke="#323232" stroke-width="1.5" fill="none" marker-end="url(#SvgjsMarker1678)"></path></g><g id="SvgjsG1680"><path id="SvgjsPath1681" d="M536.75 261L599.3 261" stroke="#323232" stroke-width="1.5" fill="none" marker-end="url(#SvgjsMarker1682)"></path></g><g id="SvgjsG1684"><path id="SvgjsPath1685" d="M708.75 261L798.3 261" stroke-dasharray="8,5" stroke="#323232" stroke-width="1.5" fill="none" marker-end="url(#SvgjsMarker1686)"></path></g><g id="SvgjsG1688"><path id="SvgjsPath1689" d="M655 205.3L655 133.7" stroke-dasharray="8,5" stroke="#323232" stroke-width="1.5" fill="none" marker-start="url(#SvgjsMarker1690)" marker-end="url(#SvgjsMarker1692)"></path></g><g id="SvgjsG1694"><path id="SvgjsPath1695" d="M655 316.7L655 423.3" stroke-dasharray="8,5" stroke="#323232" stroke-width="1.5" fill="none" marker-start="url(#SvgjsMarker1696)" marker-end="url(#SvgjsMarker1698)"></path></g><g id="SvgjsG1700" transform="translate(784,320)"><path id="SvgjsPath1701" d="M 0 61C 0 -20.333333333333332 122 -20.333333333333332 122 61C 122 142.33333333333334 0 142.33333333333334 0 61Z" stroke="rgba(33,41,48,1)" stroke-width="1.5" fill-opacity="1" fill="#ffffff"></path><g id="SvgjsG1702"><text id="SvgjsText1703" font-family="微软雅黑" text-anchor="middle" font-size="16px" width="102px" fill="#323232" font-weight="400" align="middle" lineHeight="125%" anchor="middle" family="微软雅黑" size="16px" weight="400" font-style="" opacity="1" y="47" transform="rotate(0)"><tspan id="SvgjsTspan1704" dy="20" x="61"><tspan id="SvgjsTspan1705" style="">_Gcopystack</tspan></tspan></text></g></g><g id="SvgjsG1706"><path id="SvgjsPath1707" d="M483 419.25L483 316.7" stroke-dasharray="8,5" stroke="#323232" stroke-width="1.5" fill="none" marker-end="url(#SvgjsMarker1708)"></path></g><g id="SvgjsG1710"><path id="SvgjsPath1711" d="M523.2532835949813 434.2019470302676L618.1786342775252 303.25896315975706" stroke-dasharray="8,5" stroke="#323232" stroke-width="1.5" fill="none" marker-start="url(#SvgjsMarker1712)" marker-end="url(#SvgjsMarker1714)"></path></g><g id="SvgjsG1716"><path id="SvgjsPath1717" d="M781.3 381L655 381" stroke-dasharray="8,5" stroke="#323232" stroke-width="1.5" fill="none" marker-start="url(#SvgjsMarker1718)"></path></g><g id="SvgjsG1720"><path id="SvgjsPath1721" d="M483 205.3L483 78L599.3 78" stroke-dasharray="8,5" stroke="#323232" stroke-width="1.5" fill="none" marker-start="url(#SvgjsMarker1722)" marker-end="url(#SvgjsMarker1724)"></path></g><g id="SvgjsG1726" transform="translate(25,174.125)"><path id="SvgjsPath1727" d="M 0 0L 352 0L 352 56.875L 0 56.875Z" stroke="none" fill="none"></path><g id="SvgjsG1728"><text id="SvgjsText1729" font-family="微软雅黑" text-anchor="middle" font-size="16px" width="352px" fill="#323232" font-weight="400" align="middle" lineHeight="125%" anchor="middle" family="微软雅黑" size="16px" weight="400" font-style="" opacity="1" y="14.4375" transform="rotate(0)"><tspan id="SvgjsTspan1730" dy="20" x="176"><tspan id="SvgjsTspan1731" style="">协程刚开始创建时的状态, 初始化后, 变为dead</tspan></tspan></text></g></g><g id="SvgjsG1732" transform="translate(335,314)"><path id="SvgjsPath1733" d="M 0 0L 146 0L 146 37.96875L 0 37.96875Z" stroke="none" fill="none"></path><g id="SvgjsG1734"><text id="SvgjsText1735" font-family="微软雅黑" text-anchor="middle" font-size="16px" width="146px" fill="#323232" font-weight="400" align="middle" lineHeight="125%" anchor="middle" family="微软雅黑" size="16px" weight="400" font-style="" opacity="1" y="4.984375" transform="rotate(0)"><tspan id="SvgjsTspan1736" dy="20" x="73"><tspan id="SvgjsTspan1737" style="">进入runq队列</tspan></tspan></text></g></g><g id="SvgjsG1738" transform="translate(666,181.8046875)"><path id="SvgjsPath1739" d="M 0 0L 118 0L 118 41.515625L 0 41.515625Z" stroke="none" fill="none"></path><g id="SvgjsG1740"><text id="SvgjsText1741" font-family="微软雅黑" text-anchor="middle" font-size="16px" width="118px" fill="#323232" font-weight="400" align="middle" lineHeight="125%" anchor="middle" family="微软雅黑" size="16px" weight="400" font-style="" opacity="1" y="6.7578125" transform="rotate(0)"><tspan id="SvgjsTspan1742" dy="20" x="59"><tspan id="SvgjsTspan1743" style="">正在M中运行</tspan></tspan></text></g></g><g id="SvgjsG1744" transform="translate(708,35.984375)"><path id="SvgjsPath1745" d="M 0 0L 146 0L 146 40L 0 40Z" stroke="none" fill="none"></path><g id="SvgjsG1746"><text id="SvgjsText1747" font-family="微软雅黑" text-anchor="middle" font-size="16px" width="146px" fill="#323232" font-weight="400" align="middle" lineHeight="125%" anchor="middle" family="微软雅黑" size="16px" weight="400" font-style="" opacity="1" y="6" transform="rotate(0)"><tspan id="SvgjsTspan1748" dy="20" x="73"><tspan id="SvgjsTspan1749" style="">正在执行系统调用</tspan></tspan></text></g></g><g id="SvgjsG1750" transform="translate(306,530.984375)"><path id="SvgjsPath1751" d="M 0 0L 223 0L 223 52.515625L 0 52.515625Z" stroke="none" fill="none"></path><g id="SvgjsG1752"><text id="SvgjsText1753" font-family="微软雅黑" text-anchor="middle" font-size="16px" width="223px" fill="#323232" font-weight="400" align="middle" lineHeight="125%" anchor="middle" family="微软雅黑" size="16px" weight="400" font-style="" opacity="1" y="12.2578125" transform="rotate(0)"><tspan id="SvgjsTspan1754" dy="20" x="111.5"><tspan id="SvgjsTspan1755" style="">阻塞等待, channel或者网络io</tspan></tspan></text></g></g><g id="SvgjsG1756" transform="translate(595,550.9375)"><path id="SvgjsPath1757" d="M 0 0L 178 0L 178 38.5625L 0 38.5625Z" stroke="none" fill="none"></path><g id="SvgjsG1758"><text id="SvgjsText1759" font-family="微软雅黑" text-anchor="middle" font-size="16px" width="178px" fill="#323232" font-weight="400" align="middle" lineHeight="125%" anchor="middle" family="微软雅黑" size="16px" weight="400" font-style="" opacity="1" y="5.28125" transform="rotate(0)"><tspan id="SvgjsTspan1760" dy="20" x="89"><tspan id="SvgjsTspan1761" style="">被强制抢占, 退位让行</tspan></tspan></text></g></g><g id="SvgjsG1762" transform="translate(801,453)"><path id="SvgjsPath1763" d="M 0 0L 178 0L 178 40L 0 40Z" stroke="none" fill="none"></path><g id="SvgjsG1764"><text id="SvgjsText1765" font-family="微软雅黑" text-anchor="middle" font-size="16px" width="178px" fill="#323232" font-weight="400" align="middle" lineHeight="125%" anchor="middle" family="微软雅黑" size="16px" weight="400" font-style="" opacity="1" y="-4" transform="rotate(0)"><tspan id="SvgjsTspan1766" dy="20" x="89"><tspan id="SvgjsTspan1767" style="">扩容或缩容时, 将协程中</tspan></tspan><tspan id="SvgjsTspan1768" dy="20" x="89"><tspan id="SvgjsTspan1769" style="">的栈转移到新栈时的状态</tspan></tspan></text></g></g></svg>