<svg id="SvgjsSvg1006" width="623" height="552" xmlns="http://www.w3.org/2000/svg" version="1.1" xmlns:xlink="http://www.w3.org/1999/xlink" xmlns:svgjs="http://svgjs.com/svgjs"><defs id="SvgjsDefs1007"><pattern patternUnits="userSpaceOnUse" id="pattern_mark_0" width="300" height="300"><text x="150" y="100" fill="rgba(229,229,229,0.8)" font-size="18" transform="rotate(-45, 150, 150)" style="dominant-baseline: middle; text-anchor: middle;"></text></pattern><pattern patternUnits="userSpaceOnUse" id="pattern_mark_1" width="300" height="300"><text x="150" y="200" fill="rgba(229,229,229,0.8)" font-size="18" transform="rotate(-45, 150, 150)" style="dominant-baseline: middle; text-anchor: middle;"></text></pattern><marker id="SvgjsMarker1035" markerWidth="13" markerHeight="9" refX="3.5" refY="4.5" viewBox="0 0 13 9" orient="auto" markerUnits="userSpaceOnUse" stroke-dasharray="0,0"><path id="SvgjsPath1036" d="M13,0 L0,4.5 L13,9 L13,0" fill="#323232" stroke="#323232" stroke-width="1"></path></marker><marker id="SvgjsMarker1037" markerWidth="13" markerHeight="9" refX="9.5" refY="4.5" viewBox="0 0 13 9" orient="auto" markerUnits="userSpaceOnUse" stroke-dasharray="0,0"><path id="SvgjsPath1038" d="M0,0 L13,4.5 L0,9 L0,0" fill="#323232" stroke="#323232" stroke-width="1"></path></marker><marker id="SvgjsMarker1041" markerWidth="13" markerHeight="9" refX="3.5" refY="4.5" viewBox="0 0 13 9" orient="auto" markerUnits="userSpaceOnUse" stroke-dasharray="0,0"><path id="SvgjsPath1042" d="M13,0 L0,4.5 L13,9 L13,0" fill="#323232" stroke="#323232" stroke-width="1"></path></marker><marker id="SvgjsMarker1043" markerWidth="13" markerHeight="9" refX="9.5" refY="4.5" viewBox="0 0 13 9" orient="auto" markerUnits="userSpaceOnUse" stroke-dasharray="0,0"><path id="SvgjsPath1044" d="M0,0 L13,4.5 L0,9 L0,0" fill="#323232" stroke="#323232" stroke-width="1"></path></marker><marker id="SvgjsMarker1047" markerWidth="13" markerHeight="9" refX="3.5" refY="4.5" viewBox="0 0 13 9" orient="auto" markerUnits="userSpaceOnUse" stroke-dasharray="0,0"><path id="SvgjsPath1048" d="M13,0 L0,4.5 L13,9 L13,0" fill="#323232" stroke="#323232" stroke-width="1"></path></marker><marker id="SvgjsMarker1049" markerWidth="13" markerHeight="9" refX="9.5" refY="4.5" viewBox="0 0 13 9" orient="auto" markerUnits="userSpaceOnUse" stroke-dasharray="0,0"><path id="SvgjsPath1050" d="M0,0 L13,4.5 L0,9 L0,0" fill="#323232" stroke="#323232" stroke-width="1"></path></marker><marker id="SvgjsMarker1089" markerWidth="13" markerHeight="9" refX="9.5" refY="4.5" viewBox="0 0 13 9" orient="auto" markerUnits="userSpaceOnUse" stroke-dasharray="0,0"><path id="SvgjsPath1090" d="M0,0 L13,4.5 L0,9 L0,0" fill="#323232" stroke="#323232" stroke-width="1"></path></marker><marker id="SvgjsMarker1093" markerWidth="13" markerHeight="9" refX="9.5" refY="4.5" viewBox="0 0 13 9" orient="auto" markerUnits="userSpaceOnUse" stroke-dasharray="0,0"><path id="SvgjsPath1094" d="M0,0 L13,4.5 L0,9 L0,0" fill="#323232" stroke="#323232" stroke-width="1"></path></marker><marker id="SvgjsMarker1109" markerWidth="13" markerHeight="9" refX="3.5" refY="4.5" viewBox="0 0 13 9" orient="auto" markerUnits="userSpaceOnUse" stroke-dasharray="0,0"><path id="SvgjsPath1110" d="M13,0 L0,4.5 L13,9 L13,0" fill="#323232" stroke="#323232" stroke-width="1"></path></marker><marker id="SvgjsMarker1113" markerWidth="13" markerHeight="9" refX="3.5" refY="4.5" viewBox="0 0 13 9" orient="auto" markerUnits="userSpaceOnUse" stroke-dasharray="0,0"><path id="SvgjsPath1114" d="M13,0 L0,4.5 L13,9 L13,0" fill="#323232" stroke="#323232" stroke-width="1"></path></marker><marker id="SvgjsMarker1117" markerWidth="13" markerHeight="9" refX="3.5" refY="4.5" viewBox="0 0 13 9" orient="auto" markerUnits="userSpaceOnUse" stroke-dasharray="0,0"><path id="SvgjsPath1118" d="M13,0 L0,4.5 L13,9 L13,0" fill="#323232" stroke="#323232" stroke-width="1"></path></marker></defs><rect id="svgbackgroundid" width="623" height="552" fill="transparent"></rect><rect id="SvgjsRect1009" width="623" height="552" fill="url(#pattern_mark_0)"></rect><rect id="SvgjsRect1010" width="623" height="552" fill="url(#pattern_mark_1)"></rect><g id="SvgjsG1011" transform="translate(25,25)"><path id="SvgjsPath1012" d="M 0 0L 573 0L 573 221L 0 221Z" stroke-dasharray="10,6,3,6" stroke="rgba(33,41,48,1)" stroke-width="1.5" fill-opacity="1" fill="#ffffff"></path><g id="SvgjsG1013"><text id="SvgjsText1014" font-family="微软雅黑" text-anchor="middle" font-size="13px" width="553px" fill="#323232" font-weight="400" align="middle" lineHeight="125%" anchor="middle" family="微软雅黑" size="13px" weight="400" font-style="" opacity="1" y="99.875" transform="rotate(0)"></text></g></g><g id="SvgjsG1015" transform="translate(252,43)"><path id="SvgjsPath1016" d="M 0 4Q 0 0 4 0L 106 0Q 110 0 110 4L 110 50Q 110 54 106 54L 4 54Q 0 54 0 50Z" stroke="rgba(33,41,48,1)" stroke-width="1.5" fill-opacity="1" fill="#95da69"></path><g id="SvgjsG1017"><text id="SvgjsText1018" font-family="微软雅黑" text-anchor="middle" font-size="16px" width="90px" fill="#323232" font-weight="400" align="middle" lineHeight="125%" anchor="middle" family="微软雅黑" size="16px" weight="400" font-style="" opacity="1" y="13" transform="rotate(0)"><tspan id="SvgjsTspan1019" dy="20" x="55"><tspan id="SvgjsTspan1020" style="">Sentinel1</tspan></tspan></text></g></g><g id="SvgjsG1021" transform="translate(91,155)"><path id="SvgjsPath1022" d="M 0 4Q 0 0 4 0L 106 0Q 110 0 110 4L 110 50Q 110 54 106 54L 4 54Q 0 54 0 50Z" stroke="rgba(33,41,48,1)" stroke-width="1.5" fill-opacity="1" fill="#95da69"></path><g id="SvgjsG1023"><text id="SvgjsText1024" font-family="微软雅黑" text-anchor="middle" font-size="16px" width="90px" fill="#323232" font-weight="400" align="middle" lineHeight="125%" anchor="middle" family="微软雅黑" size="16px" weight="400" font-style="" opacity="1" y="13" transform="rotate(0)"><tspan id="SvgjsTspan1025" dy="20" x="55"><tspan id="SvgjsTspan1026" style="">Sentinel1</tspan></tspan></text></g></g><g id="SvgjsG1027" transform="translate(401,155)"><path id="SvgjsPath1028" d="M 0 4Q 0 0 4 0L 106 0Q 110 0 110 4L 110 50Q 110 54 106 54L 4 54Q 0 54 0 50Z" stroke="rgba(33,41,48,1)" stroke-width="1.5" fill-opacity="1" fill="#95da69"></path><g id="SvgjsG1029"><text id="SvgjsText1030" font-family="微软雅黑" text-anchor="middle" font-size="16px" width="90px" fill="#323232" font-weight="400" align="middle" lineHeight="125%" anchor="middle" family="微软雅黑" size="16px" weight="400" font-style="" opacity="1" y="13" transform="rotate(0)"><tspan id="SvgjsTspan1031" dy="20" x="55"><tspan id="SvgjsTspan1032" style="">Sentinel1</tspan></tspan></text></g></g><g id="SvgjsG1033"><path id="SvgjsPath1034" d="M148.1064056852594 153.3109011014429L249.8935943147406 71.68909889855709" stroke-dasharray="8,5" stroke="#323232" stroke-width="1.5" fill="none" marker-start="url(#SvgjsMarker1035)" marker-end="url(#SvgjsMarker1037)"></path></g><g id="SvgjsG1039"><path id="SvgjsPath1040" d="M453.99734874688795 153.1890919519731L364.00265125311205 71.8109080480269" stroke-dasharray="8,5" stroke="#323232" stroke-width="1.5" fill="none" marker-start="url(#SvgjsMarker1041)" marker-end="url(#SvgjsMarker1043)"></path></g><g id="SvgjsG1045"><path id="SvgjsPath1046" d="M203.7 182L398.29999999999995 182" stroke-dasharray="8,5" stroke="#323232" stroke-width="1.5" fill="none" marker-start="url(#SvgjsMarker1047)" marker-end="url(#SvgjsMarker1049)"></path></g><g id="SvgjsG1051" transform="translate(133,68)"><path id="SvgjsPath1052" d="M 0 0L 68 0L 68 40L 0 40Z" stroke="none" fill="none"></path><g id="SvgjsG1053"><text id="SvgjsText1054" font-family="微软雅黑" text-anchor="middle" font-size="16px" width="68px" fill="#323232" font-weight="400" align="middle" lineHeight="125%" anchor="middle" family="微软雅黑" size="16px" weight="400" font-style="" opacity="1" y="6" transform="rotate(0)"><tspan id="SvgjsTspan1055" dy="20" x="34"><tspan id="SvgjsTspan1056" style="">监控</tspan></tspan></text></g></g><g id="SvgjsG1057" transform="translate(405,57)"><path id="SvgjsPath1058" d="M 0 0L 68 0L 68 40L 0 40Z" stroke="none" fill="none"></path><g id="SvgjsG1059"><text id="SvgjsText1060" font-family="微软雅黑" text-anchor="middle" font-size="16px" width="68px" fill="#323232" font-weight="400" align="middle" lineHeight="125%" anchor="middle" family="微软雅黑" size="16px" weight="400" font-style="" opacity="1" y="6" transform="rotate(0)"><tspan id="SvgjsTspan1061" dy="20" x="34"><tspan id="SvgjsTspan1062" style="">监控</tspan></tspan></text></g></g><g id="SvgjsG1063" transform="translate(267,134)"><path id="SvgjsPath1064" d="M 0 0L 68 0L 68 40L 0 40Z" stroke="none" fill="none"></path><g id="SvgjsG1065"><text id="SvgjsText1066" font-family="微软雅黑" text-anchor="middle" font-size="16px" width="68px" fill="#323232" font-weight="400" align="middle" lineHeight="125%" anchor="middle" family="微软雅黑" size="16px" weight="400" font-style="" opacity="1" y="6" transform="rotate(0)"><tspan id="SvgjsTspan1067" dy="20" x="34"><tspan id="SvgjsTspan1068" style="">监控</tspan></tspan></text></g></g><g id="SvgjsG1069" transform="translate(258,298)"><path id="SvgjsPath1070" d="M 0 42.5C 0 -14.166666666666666 86 -14.166666666666666 86 42.5C 86 99.16666666666667 0 99.16666666666667 0 42.5Z" stroke="rgba(33,41,48,1)" stroke-width="1.5" fill-opacity="1" fill="#e9d66f"></path><g id="SvgjsG1071"><text id="SvgjsText1072" font-family="微软雅黑" text-anchor="middle" font-size="16px" width="66px" fill="#323232" font-weight="400" align="middle" lineHeight="125%" anchor="middle" family="微软雅黑" size="16px" weight="400" font-style="" opacity="1" y="28.5" transform="rotate(0)"><tspan id="SvgjsTspan1073" dy="20" x="43"><tspan id="SvgjsTspan1074" style="">Master</tspan></tspan></text></g></g><g id="SvgjsG1075" transform="translate(124,442)"><path id="SvgjsPath1076" d="M 0 42.5C 0 -14.166666666666666 86 -14.166666666666666 86 42.5C 86 99.16666666666667 0 99.16666666666667 0 42.5Z" stroke="rgba(33,41,48,1)" stroke-width="1.5" fill-opacity="1" fill="#e9d66f"></path><g id="SvgjsG1077"><text id="SvgjsText1078" font-family="微软雅黑" text-anchor="middle" font-size="16px" width="66px" fill="#323232" font-weight="400" align="middle" lineHeight="125%" anchor="middle" family="微软雅黑" size="16px" weight="400" font-style="" opacity="1" y="28.5" transform="rotate(0)"><tspan id="SvgjsTspan1079" dy="20" x="43"><tspan id="SvgjsTspan1080" style="">Slave1</tspan></tspan></text></g></g><g id="SvgjsG1081" transform="translate(380,442)"><path id="SvgjsPath1082" d="M 0 42.5C 0 -14.166666666666666 86 -14.166666666666666 86 42.5C 86 99.16666666666667 0 99.16666666666667 0 42.5Z" stroke="rgba(33,41,48,1)" stroke-width="1.5" fill-opacity="1" fill="#e9d66f"></path><g id="SvgjsG1083"><text id="SvgjsText1084" font-family="微软雅黑" text-anchor="middle" font-size="16px" width="66px" fill="#323232" font-weight="400" align="middle" lineHeight="125%" anchor="middle" family="微软雅黑" size="16px" weight="400" font-style="" opacity="1" y="28.5" transform="rotate(0)"><tspan id="SvgjsTspan1085" dy="20" x="43"><tspan id="SvgjsTspan1086" style="">Slave2</tspan></tspan></text></g></g><g id="SvgjsG1087"><path id="SvgjsPath1088" d="M262.2692475064478 361.55684631760596L199.20521738474315 452.66789572728896" stroke="#323232" stroke-width="1.5" fill="none" marker-end="url(#SvgjsMarker1089)"></path></g><g id="SvgjsG1091"><path id="SvgjsPath1092" d="M338.5912628289451 362.0861361251556L400.65560403196787 445.29080550070546" stroke="#323232" stroke-width="1.5" fill="none" marker-end="url(#SvgjsMarker1093)"></path></g><g id="SvgjsG1095" transform="translate(221.75,402)"><path id="SvgjsPath1096" d="M 0 0L 68 0L 68 40L 0 40Z" stroke="none" fill="none"></path><g id="SvgjsG1097"><text id="SvgjsText1098" font-family="微软雅黑" text-anchor="middle" font-size="16px" width="68px" fill="#323232" font-weight="400" align="middle" lineHeight="125%" anchor="middle" family="微软雅黑" size="16px" weight="400" font-style="" opacity="1" y="6" transform="rotate(0)"><tspan id="SvgjsTspan1099" dy="20" x="34"><tspan id="SvgjsTspan1100" style="">复制</tspan></tspan></text></g></g><g id="SvgjsG1101" transform="translate(301.5,406)"><path id="SvgjsPath1102" d="M 0 0L 68 0L 68 40L 0 40Z" stroke="none" fill="none"></path><g id="SvgjsG1103"><text id="SvgjsText1104" font-family="微软雅黑" text-anchor="middle" font-size="16px" width="68px" fill="#323232" font-weight="400" align="middle" lineHeight="125%" anchor="middle" family="微软雅黑" size="16px" weight="400" font-style="" opacity="1" y="6" transform="rotate(0)"><tspan id="SvgjsTspan1105" dy="20" x="34"><tspan id="SvgjsTspan1106" style="">复制</tspan></tspan></text></g></g><g id="SvgjsG1107"><path id="SvgjsPath1108" d="M301 295.3L301 246" stroke-dasharray="8,5" stroke="#323232" stroke-width="1.5" fill="none" marker-start="url(#SvgjsMarker1109)"></path></g><g id="SvgjsG1111"><path id="SvgjsPath1112" d="M168.50822102459347 439.7605202968158L298.5810497153907 246.62207769532898" stroke-dasharray="8,5" stroke="#323232" stroke-width="1.5" fill="none" marker-start="url(#SvgjsMarker1113)"></path></g><g id="SvgjsG1115"><path id="SvgjsPath1116" d="M429.851053783133 440.66102052578935L303.40947029273207 246.62835824126842" stroke-dasharray="8,5" stroke="#323232" stroke-width="1.5" fill="none" marker-start="url(#SvgjsMarker1117)"></path></g><g id="SvgjsG1119" transform="translate(168,293)"><path id="SvgjsPath1120" d="M 0 0L 68 0L 68 40L 0 40Z" stroke="none" fill="none"></path><g id="SvgjsG1121"><text id="SvgjsText1122" font-family="微软雅黑" text-anchor="middle" font-size="16px" width="68px" fill="#323232" font-weight="400" align="middle" lineHeight="125%" anchor="middle" family="微软雅黑" size="16px" weight="400" font-style="" opacity="1" y="6" transform="rotate(0)"><tspan id="SvgjsTspan1123" dy="20" x="34"><tspan id="SvgjsTspan1124" style="">监控</tspan></tspan></text></g></g><g id="SvgjsG1125" transform="translate(335,278)"><path id="SvgjsPath1126" d="M 0 0L 68 0L 68 40L 0 40Z" stroke="none" fill="none"></path><g id="SvgjsG1127"><text id="SvgjsText1128" font-family="微软雅黑" text-anchor="middle" font-size="16px" width="68px" fill="#323232" font-weight="400" align="middle" lineHeight="125%" anchor="middle" family="微软雅黑" size="16px" weight="400" font-style="" opacity="1" y="6" transform="rotate(0)"><tspan id="SvgjsTspan1129" dy="20" x="34"><tspan id="SvgjsTspan1130" style="">监控</tspan></tspan></text></g></g></svg>