<svg id="SvgjsSvg1131" width="781.5" height="460.5" xmlns="http://www.w3.org/2000/svg" version="1.1" xmlns:xlink="http://www.w3.org/1999/xlink" xmlns:svgjs="http://svgjs.com/svgjs"><defs id="SvgjsDefs1132"><pattern patternUnits="userSpaceOnUse" id="pattern_mark_0" width="300" height="300"><text x="150" y="100" fill="rgba(229,229,229,0.8)" font-size="18" transform="rotate(-45, 150, 150)" style="dominant-baseline: middle; text-anchor: middle;"></text></pattern><pattern patternUnits="userSpaceOnUse" id="pattern_mark_1" width="300" height="300"><text x="150" y="200" fill="rgba(229,229,229,0.8)" font-size="18" transform="rotate(-45, 150, 150)" style="dominant-baseline: middle; text-anchor: middle;"></text></pattern><marker id="SvgjsMarker1188" markerWidth="13" markerHeight="9" refX="9.5" refY="4.5" viewBox="0 0 13 9" orient="auto" markerUnits="userSpaceOnUse" stroke-dasharray="0,0"><path id="SvgjsPath1189" d="M0,0 L13,4.5 L0,9 L0,0" fill="#323232" stroke="#323232" stroke-width="1"></path></marker><marker id="SvgjsMarker1192" markerWidth="13" markerHeight="9" refX="9.5" refY="4.5" viewBox="0 0 13 9" orient="auto" markerUnits="userSpaceOnUse" stroke-dasharray="0,0"><path id="SvgjsPath1193" d="M0,0 L13,4.5 L0,9 L0,0" fill="#323232" stroke="#323232" stroke-width="1"></path></marker><marker id="SvgjsMarker1196" markerWidth="13" markerHeight="9" refX="9.5" refY="4.5" viewBox="0 0 13 9" orient="auto" markerUnits="userSpaceOnUse" stroke-dasharray="0,0"><path id="SvgjsPath1197" d="M0,0 L13,4.5 L0,9 L0,0" fill="#323232" stroke="#323232" stroke-width="1"></path></marker><marker id="SvgjsMarker1212" markerWidth="13" markerHeight="9" refX="9.5" refY="4.5" viewBox="0 0 13 9" orient="auto" markerUnits="userSpaceOnUse" stroke-dasharray="0,0"><path id="SvgjsPath1213" d="M0,0 L13,4.5 L0,9 L0,0" fill="#323232" stroke="#323232" stroke-width="1"></path></marker><marker id="SvgjsMarker1222" markerWidth="13" markerHeight="9" refX="9.5" refY="4.5" viewBox="0 0 13 9" orient="auto" markerUnits="userSpaceOnUse" stroke-dasharray="0,0"><path id="SvgjsPath1223" d="M0,0 L13,4.5 L0,9 L0,0" fill="#323232" stroke="#323232" stroke-width="1"></path></marker></defs><rect id="svgbackgroundid" width="781.5" height="460.5" fill="transparent"></rect><rect id="SvgjsRect1134" width="781.5" height="460.5" fill="url(#pattern_mark_0)"></rect><rect id="SvgjsRect1135" width="781.5" height="460.5" fill="url(#pattern_mark_1)"></rect><g id="SvgjsG1136" transform="translate(249.5,25)"><path id="SvgjsPath1137" d="M 0 0L 507 0L 507 410.5L 0 410.5Z" stroke-dasharray="10,6,3,6" stroke="rgba(33,41,48,1)" stroke-width="1.5" fill-opacity="1" fill="#ffffff"></path><g id="SvgjsG1138"><text id="SvgjsText1139" font-family="微软雅黑" text-anchor="middle" font-size="13px" width="487px" fill="#323232" font-weight="400" align="middle" lineHeight="125%" anchor="middle" family="微软雅黑" size="13px" weight="400" font-style="" opacity="1" y="194.625" transform="rotate(0)"></text></g></g><g id="SvgjsG1140" transform="translate(280.5,62.5)"><path id="SvgjsPath1141" d="M 0 0L 196 0L 196 346L 0 346Z" stroke-dasharray="10,6,3,6" stroke="rgba(33,41,48,1)" stroke-width="1.5" fill-opacity="1" fill="#ffffff"></path><g id="SvgjsG1142"><text id="SvgjsText1143" font-family="微软雅黑" text-anchor="middle" font-size="13px" width="176px" fill="#323232" font-weight="400" align="middle" lineHeight="125%" anchor="middle" family="微软雅黑" size="13px" weight="400" font-style="" opacity="1" y="162.375" transform="rotate(0)"></text></g></g><g id="SvgjsG1144" transform="translate(312.5,122.5)"><path id="SvgjsPath1145" d="M 0 4Q 0 0 4 0L 119 0Q 123 0 123 4L 123 47Q 123 51 119 51L 4 51Q 0 51 0 47Z" stroke="rgba(33,41,48,1)" stroke-width="1.5" fill-opacity="1" fill="#95da69"></path><g id="SvgjsG1146"><text id="SvgjsText1147" font-family="微软雅黑" text-anchor="middle" font-size="16px" width="103px" fill="#323232" font-weight="400" align="middle" lineHeight="125%" anchor="middle" family="微软雅黑" size="16px" weight="400" font-style="" opacity="1" y="11.5" transform="rotate(0)"><tspan id="SvgjsTspan1148" dy="20" x="61.5"><tspan id="SvgjsTspan1149" style="">0~5460</tspan></tspan></text></g></g><g id="SvgjsG1150" transform="translate(340,64.5)"><path id="SvgjsPath1151" d="M 0 0L 68 0L 68 40L 0 40Z" stroke="none" fill="none"></path><g id="SvgjsG1152"><text id="SvgjsText1153" font-family="微软雅黑" text-anchor="middle" font-size="17px" width="68px" fill="#323232" font-weight="400" align="middle" lineHeight="125%" anchor="middle" family="微软雅黑" size="17px" weight="400" font-style="" opacity="1" y="5.375" transform="rotate(0)"><tspan id="SvgjsTspan1154" dy="21.25" x="34"><tspan id="SvgjsTspan1155" style="">槽范围</tspan></tspan></text></g></g><g id="SvgjsG1156" transform="translate(312.5,217.5)"><path id="SvgjsPath1157" d="M 0 4Q 0 0 4 0L 119 0Q 123 0 123 4L 123 56.38181818181818Q 123 60.38181818181818 119 60.38181818181818L 4 60.38181818181818Q 0 60.38181818181818 0 56.38181818181818Z" stroke="rgba(33,41,48,1)" stroke-width="1.5" fill-opacity="1" fill="#95da69"></path><g id="SvgjsG1158"><text id="SvgjsText1159" font-family="微软雅黑" text-anchor="middle" font-size="16px" width="103px" fill="#323232" font-weight="400" align="middle" lineHeight="125%" anchor="middle" family="微软雅黑" size="16px" weight="400" font-style="" opacity="1" y="16.19090909090909" transform="rotate(0)"><tspan id="SvgjsTspan1160" dy="20" x="61.5"><tspan id="SvgjsTspan1161" style="">5461~10922</tspan></tspan></text></g></g><g id="SvgjsG1162" transform="translate(312.5,315.3090909090909)"><path id="SvgjsPath1163" d="M 0 4Q 0 0 4 0L 119 0Q 123 0 123 4L 123 56.38181818181818Q 123 60.38181818181818 119 60.38181818181818L 4 60.38181818181818Q 0 60.38181818181818 0 56.38181818181818Z" stroke="rgba(33,41,48,1)" stroke-width="1.5" fill-opacity="1" fill="#95da69"></path><g id="SvgjsG1164"><text id="SvgjsText1165" font-family="微软雅黑" text-anchor="middle" font-size="16px" width="103px" fill="#323232" font-weight="400" align="middle" lineHeight="125%" anchor="middle" family="微软雅黑" size="16px" weight="400" font-style="" opacity="1" y="16.19090909090909" transform="rotate(0)"><tspan id="SvgjsTspan1166" dy="20" x="61.5"><tspan id="SvgjsTspan1167" style="">10923~16383</tspan></tspan></text></g></g><g id="SvgjsG1168" transform="translate(542.5,122.5)"><path id="SvgjsPath1169" d="M 0 4Q 0 0 4 0L 145 0Q 149 0 149 4L 149 47Q 149 51 145 51L 4 51Q 0 51 0 47Z" stroke="rgba(33,41,48,1)" stroke-width="1.5" fill-opacity="1" fill="#e9d66f"></path><g id="SvgjsG1170"><text id="SvgjsText1171" font-family="微软雅黑" text-anchor="middle" font-size="16px" width="129px" fill="#323232" font-weight="400" align="middle" lineHeight="125%" anchor="middle" family="微软雅黑" size="16px" weight="400" font-style="" opacity="1" y="11.5" transform="rotate(0)"><tspan id="SvgjsTspan1172" dy="20" x="74.5"><tspan id="SvgjsTspan1173" style="">redis - 1主节点</tspan></tspan></text></g></g><g id="SvgjsG1174" transform="translate(542.5,226.88181818181818)"><path id="SvgjsPath1175" d="M 0 4Q 0 0 4 0L 145 0Q 149 0 149 4L 149 47Q 149 51 145 51L 4 51Q 0 51 0 47Z" stroke="rgba(33,41,48,1)" stroke-width="1.5" fill-opacity="1" fill="#e9d66f"></path><g id="SvgjsG1176"><text id="SvgjsText1177" font-family="微软雅黑" text-anchor="middle" font-size="16px" width="129px" fill="#323232" font-weight="400" align="middle" lineHeight="125%" anchor="middle" family="微软雅黑" size="16px" weight="400" font-style="" opacity="1" y="11.5" transform="rotate(0)"><tspan id="SvgjsTspan1178" dy="20" x="74.5"><tspan id="SvgjsTspan1179" style="">redis - 2主节点</tspan></tspan></text></g></g><g id="SvgjsG1180" transform="translate(542.5,320)"><path id="SvgjsPath1181" d="M 0 4Q 0 0 4 0L 145 0Q 149 0 149 4L 149 47Q 149 51 145 51L 4 51Q 0 51 0 47Z" stroke="rgba(33,41,48,1)" stroke-width="1.5" fill-opacity="1" fill="#e9d66f"></path><g id="SvgjsG1182"><text id="SvgjsText1183" font-family="微软雅黑" text-anchor="middle" font-size="16px" width="129px" fill="#323232" font-weight="400" align="middle" lineHeight="125%" anchor="middle" family="微软雅黑" size="16px" weight="400" font-style="" opacity="1" y="11.5" transform="rotate(0)"><tspan id="SvgjsTspan1184" dy="20" x="74.5"><tspan id="SvgjsTspan1185" style="">redis - 3主节点</tspan></tspan></text></g></g><g id="SvgjsG1186"><path id="SvgjsPath1187" d="M436.25 148L539.8 148" stroke="#323232" stroke-width="1.5" fill="none" marker-end="url(#SvgjsMarker1188)"></path></g><g id="SvgjsG1190"><path id="SvgjsPath1191" d="M436.25 247.6909090909091L539.8 247.6909090909091" stroke="#323232" stroke-width="1.5" fill="none" marker-end="url(#SvgjsMarker1192)"></path></g><g id="SvgjsG1194"><path id="SvgjsPath1195" d="M436.25 345.5L539.8 345.5" stroke="#323232" stroke-width="1.5" fill="none" marker-end="url(#SvgjsMarker1196)"></path></g><g id="SvgjsG1198" transform="translate(64.5,73.5)"><path id="SvgjsPath1199" d="M 0 35C 0 -11.666666666666666 70 -11.666666666666666 70 35C 70 81.66666666666667 0 81.66666666666667 0 35Z" stroke="rgba(33,41,48,1)" stroke-width="1.5" fill-opacity="1" fill="#ffffff"></path><g id="SvgjsG1200"><text id="SvgjsText1201" font-family="微软雅黑" text-anchor="middle" font-size="16px" width="50px" fill="#323232" font-weight="400" align="middle" lineHeight="125%" anchor="middle" family="微软雅黑" size="16px" weight="400" font-style="" opacity="1" y="21" transform="rotate(0)"><tspan id="SvgjsTspan1202" dy="20" x="35"><tspan id="SvgjsTspan1203" style="">keys</tspan></tspan></text></g></g><g id="SvgjsG1204" transform="translate(25,210)"><path id="SvgjsPath1205" d="M 0 4Q 0 0 4 0L 145 0Q 149 0 149 4L 149 47Q 149 51 145 51L 4 51Q 0 51 0 47Z" stroke="rgba(33,41,48,1)" stroke-width="1.5" fill-opacity="1" fill="#a6aef3"></path><g id="SvgjsG1206"><text id="SvgjsText1207" font-family="微软雅黑" text-anchor="middle" font-size="16px" width="129px" fill="#323232" font-weight="400" align="middle" lineHeight="125%" anchor="middle" family="微软雅黑" size="16px" weight="400" font-style="" opacity="1" y="11.5" transform="rotate(0)"><tspan id="SvgjsTspan1208" dy="20" x="74.5"><tspan id="SvgjsTspan1209" style="">Hash(key)</tspan></tspan></text></g></g><g id="SvgjsG1210"><path id="SvgjsPath1211" d="M99.5 144.25L99.5 207.3" stroke="#323232" stroke-width="1.5" fill="none" marker-end="url(#SvgjsMarker1212)"></path></g><g id="SvgjsG1214" transform="translate(603,30.5)"><path id="SvgjsPath1215" d="M 0 0L 107.5 0L 107.5 43L 0 43Z" stroke="none" fill="none"></path><g id="SvgjsG1216"><text id="SvgjsText1217" font-family="微软雅黑" text-anchor="middle" font-size="17px" width="108px" fill="#323232" font-weight="400" align="middle" lineHeight="125%" anchor="middle" family="微软雅黑" size="17px" weight="400" font-style="" opacity="1" y="6.875" transform="rotate(0)"><tspan id="SvgjsTspan1218" dy="21.25" x="54"><tspan id="SvgjsTspan1219" style="">Redis集群</tspan></tspan></text></g></g><g id="SvgjsG1220"><path id="SvgjsPath1221" d="M174.75 235.5L246.8 235.5" stroke="#323232" stroke-width="1.5" fill="none" marker-end="url(#SvgjsMarker1222)"></path></g></svg>